ply
format ascii 1.0
comment Created by Blender 2.81 (sub 16) - www.blender.org, source file: 'seaplane.blend'
element vertex 292
property float x
property float y
property float z
property float nx
property float ny
property float nz
element face 172
property list uchar uint vertex_indices
end_header
5.901180 3.385221 -0.146741 1.000000 -0.000000 0.000000
5.901180 5.385221 0.033077 1.000000 -0.000000 0.000000
5.901180 3.385221 0.033077 1.000000 -0.000000 0.000000
5.901180 3.385221 0.033077 -0.000000 0.000000 1.000000
4.944380 5.385221 0.033077 -0.000000 0.000000 1.000000
4.180145 3.385221 0.033077 -0.000000 0.000000 1.000000
4.180145 3.385221 0.033077 -0.934125 0.356945 0.000000
4.944380 5.385221 -0.146741 -0.934125 0.356945 0.000000
4.180145 3.385221 -0.146741 -0.934125 0.356945 0.000000
4.180145 3.385221 -0.146741 -0.000000 0.000000 -1.000000
5.901180 5.385221 -0.146741 -0.000000 0.000000 -1.000000
5.901180 3.385221 -0.146741 -0.000000 0.000000 -1.000000
5.901180 3.385221 0.033077 0.000000 -1.000000 0.000000
4.180145 3.385221 -0.146741 0.000000 -1.000000 0.000000
5.901180 3.385221 -0.146741 0.000000 -1.000000 0.000000
4.944380 5.385221 0.033077 0.000000 1.000000 -0.000000
5.901180 5.385221 -0.146741 0.000000 1.000000 -0.000000
4.944380 5.385221 -0.146741 0.000000 1.000000 -0.000000
5.901180 5.385221 -0.146741 1.000000 0.000000 0.000000
5.901180 5.385221 0.033077 -0.000000 0.000000 1.000000
4.944380 5.385221 0.033077 -0.934125 0.356945 0.000000
4.944380 5.385221 -0.146741 -0.000000 0.000000 -1.000000
4.180145 3.385221 0.033077 0.000000 -1.000000 0.000000
5.901180 5.385221 0.033077 0.000000 1.000000 -0.000000
2.675881 0.390687 -1.602090 0.035291 0.999377 0.000000
-0.522761 0.503640 -2.597634 0.035291 0.999377 0.000000
-0.522761 0.503640 -1.319772 0.035291 0.999377 0.000000
-0.522761 0.503640 -2.597634 0.087920 0.000000 -0.996127
2.675881 0.105330 -2.315316 0.087920 0.000000 -0.996127
-0.522761 -0.764678 -2.597634 0.087920 0.000000 -0.996127
2.675881 0.390687 -2.315316 1.000000 -0.000000 0.000000
2.675881 0.105330 -1.602090 1.000000 -0.000000 0.000000
2.675881 0.105330 -2.315316 1.000000 -0.000000 0.000000
-6.788333 0.019015 -1.688622 -0.289973 -0.957035 -0.000000
-4.201811 -0.764678 -2.597634 -0.289973 -0.957035 -0.000000
-4.201811 -0.764678 -1.319772 -0.289973 -0.957035 -0.000000
-6.788333 0.306993 -1.688622 -1.000000 0.000000 0.000000
-6.788333 0.019015 -2.228784 -1.000000 0.000000 0.000000
-6.788333 0.019015 -1.688622 -1.000000 0.000000 0.000000
-4.201811 0.503640 -1.319772 -0.141176 0.000000 0.989985
-6.788333 0.019015 -1.688622 -0.141176 0.000000 0.989985
-4.201811 -0.764678 -1.319772 -0.141176 0.000000 0.989985
2.675881 0.105330 -1.602090 0.087920 -0.000000 0.996127
-0.522761 0.503640 -1.319772 0.087920 -0.000000 0.996127
-0.522761 -0.764678 -1.319772 0.087920 -0.000000 0.996127
-0.522761 0.503640 -1.319772 0.000000 -0.000000 1.000000
-2.362286 -0.764678 -1.319772 0.000000 -0.000000 1.000000
-0.522761 -0.764678 -1.319772 0.000000 -0.000000 1.000000
-2.362286 0.503640 -1.319772 0.000000 -0.000000 1.000000
-4.201811 -0.764678 -1.319772 0.000000 -0.000000 1.000000
-0.522761 -0.764678 -1.319772 0.262458 -0.964944 0.000000
2.675881 0.105330 -2.315316 0.262458 -0.964944 0.000000
2.675881 0.105330 -1.602090 0.262458 -0.964944 0.000000
-2.362286 -0.764678 -1.319772 -0.000000 -1.000000 -0.000000
-0.522761 -0.764678 -2.597634 -0.000000 -1.000000 -0.000000
-0.522761 -0.764678 -1.319772 -0.000000 -1.000000 -0.000000
-4.201811 -0.764678 -1.319772 -0.000000 -1.000000 -0.000000
-2.362286 -0.764678 -2.597634 -0.000000 -1.000000 -0.000000
-6.788333 0.019015 -2.228784 -0.141176 0.000000 -0.989985
-4.201811 0.503640 -2.597634 -0.141176 0.000000 -0.989985
-4.201811 -0.764678 -2.597634 -0.141176 0.000000 -0.989985
-4.201811 0.503640 -2.597634 0.000000 0.000000 -1.000000
-2.362286 -0.764678 -2.597634 0.000000 0.000000 -1.000000
-4.201811 -0.764678 -2.597634 0.000000 0.000000 -1.000000
-2.362286 0.503640 -2.597634 0.000000 0.000000 -1.000000
-0.522761 -0.764678 -2.597634 0.000000 0.000000 -1.000000
-4.201811 0.503640 -1.319772 -0.075809 0.997122 0.000000
-6.788333 0.306993 -2.228784 -0.075809 0.997122 0.000000
-6.788333 0.306993 -1.688622 -0.075809 0.997122 0.000000
-2.362286 0.503640 -1.319772 -0.000000 1.000000 0.000000
-4.201811 0.503640 -2.597634 -0.000000 1.000000 0.000000
-4.201811 0.503640 -1.319772 -0.000000 1.000000 0.000000
-0.522761 0.503640 -1.319772 -0.000000 1.000000 0.000000
-2.362286 0.503640 -2.597634 -0.000000 1.000000 0.000000
-0.522761 0.503640 2.602997 0.035291 0.999377 0.000000
2.675881 0.390687 1.607453 0.035291 0.999377 0.000000
-0.522761 0.503640 1.325135 0.035291 0.999377 0.000000
2.675881 0.105330 2.320679 0.087920 -0.000000 0.996127
-0.522761 0.503640 2.602997 0.087920 -0.000000 0.996127
-0.522761 -0.764678 2.602997 0.087920 -0.000000 0.996127
2.675881 0.105330 1.607453 1.000000 -0.000000 0.000000
2.675881 0.390687 2.320679 1.000000 -0.000000 0.000000
2.675881 0.105330 2.320679 1.000000 -0.000000 0.000000
-4.201811 -0.764678 2.602997 -0.289973 -0.957035 0.000000
-6.788333 0.019015 1.693985 -0.289973 -0.957035 0.000000
-4.201811 -0.764678 1.325135 -0.289973 -0.957035 0.000000
-6.788333 0.019015 2.234147 -1.000000 0.000000 0.000000
-6.788333 0.306993 1.693985 -1.000000 0.000000 0.000000
-6.788333 0.019015 1.693985 -1.000000 0.000000 0.000000
-6.788333 0.019015 1.693985 -0.141176 0.000000 -0.989985
-4.201811 0.503640 1.325135 -0.141176 0.000000 -0.989985
-4.201811 -0.764678 1.325135 -0.141176 0.000000 -0.989985
2.675881 0.105330 1.607453 0.087920 0.000000 -0.996128
-0.522761 0.503640 1.325135 0.087920 0.000000 -0.996128
2.675881 0.390687 1.607453 0.087920 0.000000 -0.996128
-2.362286 -0.764678 1.325135 -0.000000 0.000000 -1.000000
-0.522761 0.503640 1.325135 -0.000000 0.000000 -1.000000
-0.522761 -0.764678 1.325135 -0.000000 0.000000 -1.000000
-4.201811 -0.764678 1.325135 -0.000000 0.000000 -1.000000
-2.362286 0.503640 1.325135 -0.000000 0.000000 -1.000000
2.675881 0.105330 2.320679 0.262458 -0.964944 0.000000
-0.522761 -0.764678 1.325135 0.262458 -0.964944 0.000000
2.675881 0.105330 1.607453 0.262458 -0.964944 0.000000
-0.522761 -0.764678 2.602997 0.000000 -1.000000 0.000000
-2.362286 -0.764678 1.325135 0.000000 -1.000000 0.000000
-0.522761 -0.764678 1.325135 0.000000 -1.000000 0.000000
-2.362286 -0.764678 2.602997 0.000000 -1.000000 0.000000
-4.201811 -0.764678 1.325135 0.000000 -1.000000 0.000000
-6.788333 0.019015 2.234147 -0.141176 0.000000 0.989984
-4.201811 0.503640 2.602997 -0.141176 0.000000 0.989984
-6.788333 0.306993 2.234147 -0.141176 0.000000 0.989984
-2.362286 -0.764678 2.602997 -0.000000 0.000000 1.000000
-4.201811 0.503640 2.602997 -0.000000 0.000000 1.000000
-4.201811 -0.764678 2.602997 -0.000000 0.000000 1.000000
-0.522761 -0.764678 2.602997 -0.000000 0.000000 1.000000
-2.362286 0.503640 2.602997 -0.000000 0.000000 1.000000
-6.788333 0.306993 2.234147 -0.075809 0.997122 0.000000
-4.201811 0.503640 1.325135 -0.075809 0.997122 0.000000
-6.788333 0.306993 1.693985 -0.075809 0.997122 0.000000
-4.201811 0.503640 2.602997 0.000000 1.000000 -0.000000
-2.362286 0.503640 1.325135 0.000000 1.000000 -0.000000
-4.201811 0.503640 1.325135 0.000000 1.000000 -0.000000
-2.362286 0.503640 2.602997 0.000000 1.000000 -0.000000
-0.522761 0.503640 1.325135 0.000000 1.000000 -0.000000
2.675881 0.390687 -2.315316 0.035291 0.999377 -0.000000
-0.522761 0.503640 -2.597634 0.087920 0.000000 -0.996128
2.675881 0.390687 -2.315316 0.087920 0.000000 -0.996128
2.675881 0.105330 -2.315316 0.087920 0.000000 -0.996128
2.675881 0.390687 -1.602090 1.000000 -0.000000 0.000000
-6.788333 0.019015 -2.228784 -0.289973 -0.957035 0.000000
-6.788333 0.306993 -2.228784 -1.000000 0.000000 0.000000
-6.788333 0.306993 -1.688622 -0.141176 0.000000 0.989985
2.675881 0.390687 -1.602090 0.087920 0.000000 0.996127
-4.201811 0.503640 -1.319772 0.000000 0.000000 1.000000
-0.522761 -0.764678 -1.319772 0.262458 -0.964943 0.000000
-0.522761 -0.764678 -2.597634 0.262458 -0.964943 0.000000
2.675881 0.105330 -2.315316 0.262458 -0.964943 0.000000
-4.201811 -0.764678 -2.597634 0.000000 -1.000000 0.000000
-6.788333 0.306993 -2.228784 -0.141176 -0.000000 -0.989985
-0.522761 0.503640 -2.597634 0.000000 0.000000 -1.000000
-4.201811 0.503640 -2.597634 -0.075809 0.997122 0.000000
-0.522761 0.503640 -2.597634 0.000000 1.000000 0.000000
2.675881 0.390687 2.320679 0.035291 0.999377 -0.000000
2.675881 0.105330 2.320679 0.087920 0.000000 0.996128
2.675881 0.390687 2.320679 0.087920 0.000000 0.996128
-0.522761 0.503640 2.602997 0.087920 0.000000 0.996128
2.675881 0.390687 1.607453 1.000000 0.000000 0.000000
-6.788333 0.019015 2.234147 -0.289973 -0.957035 0.000000
-6.788333 0.306993 2.234147 -1.000000 0.000000 0.000000
-6.788333 0.306993 1.693985 -0.141176 -0.000000 -0.989985
2.675881 0.105330 1.607453 0.087920 0.000000 -0.996127
-0.522761 -0.764678 1.325135 0.087920 0.000000 -0.996127
-0.522761 0.503640 1.325135 0.087920 0.000000 -0.996127
-4.201811 0.503640 1.325135 -0.000000 -0.000000 -1.000000
2.675881 0.105330 2.320679 0.262458 -0.964943 0.000000
-0.522761 -0.764678 2.602997 0.262458 -0.964943 0.000000
-0.522761 -0.764678 1.325135 0.262458 -0.964943 0.000000
-4.201811 -0.764678 2.602997 0.000000 -1.000000 0.000000
-6.788333 0.019015 2.234147 -0.141176 0.000000 0.989985
-4.201811 -0.764678 2.602997 -0.141176 0.000000 0.989985
-4.201811 0.503640 2.602997 -0.141176 0.000000 0.989985
-0.522761 0.503640 2.602997 -0.000000 0.000000 1.000000
-4.201811 0.503640 2.602997 -0.075809 0.997122 0.000000
-0.522761 0.503640 2.602997 0.000000 1.000000 -0.000000
-2.349474 4.012834 4.641193 0.995046 -0.000000 0.099415
-2.662395 4.189719 7.773209 0.995046 -0.000000 0.099415
-2.662395 4.012834 7.773209 0.995046 -0.000000 0.099415
-2.662395 4.012834 7.773209 -0.000000 0.000000 1.000000
-3.983411 4.189719 7.773209 -0.000000 0.000000 1.000000
-3.983411 4.012834 7.773209 -0.000000 0.000000 1.000000
-4.674668 4.012834 -4.754856 -0.976499 0.000000 -0.215520
-3.983411 4.189719 -7.886872 -0.976499 0.000000 -0.215520
-3.983411 4.012834 -7.886872 -0.976499 0.000000 -0.215520
-3.983411 4.012834 -7.886872 -0.000000 0.000000 -1.000000
-2.662395 4.189719 -7.886872 -0.000000 0.000000 -1.000000
-2.662395 4.012834 -7.886872 -0.000000 0.000000 -1.000000
-2.349474 4.012834 -4.754856 0.000000 -1.000000 0.000000
-3.983411 4.012834 -7.886872 0.000000 -1.000000 0.000000
-2.662395 4.012834 -7.886872 0.000000 -1.000000 0.000000
-4.674668 4.189719 -4.754856 0.000000 1.000000 -0.000000
-2.662395 4.189719 -7.886872 0.000000 1.000000 -0.000000
-3.983411 4.189719 -7.886872 0.000000 1.000000 -0.000000
-3.983411 4.189719 7.773209 0.000000 1.000000 -0.000000
-2.349474 4.189719 4.641193 0.000000 1.000000 -0.000000
-4.674668 4.189719 4.641193 0.000000 1.000000 -0.000000
-2.349474 4.189719 1.509177 0.000000 1.000000 -0.000000
-4.674668 4.189719 1.509177 0.000000 1.000000 -0.000000
-2.349474 4.189719 -1.622840 0.000000 1.000000 -0.000000
-4.674668 4.189719 -1.622840 0.000000 1.000000 -0.000000
-2.349474 4.189719 -4.754856 0.000000 1.000000 -0.000000
-2.662395 4.012834 7.773209 0.000000 -1.000000 0.000000
-4.674668 4.012834 4.641193 0.000000 -1.000000 0.000000
-2.349474 4.012834 4.641193 0.000000 -1.000000 0.000000
-4.674668 4.012834 1.509177 0.000000 -1.000000 0.000000
-2.349474 4.012834 1.509177 0.000000 -1.000000 0.000000
-4.674668 4.012834 -1.622840 0.000000 -1.000000 0.000000
-2.349474 4.012834 -1.622840 0.000000 -1.000000 0.000000
-4.674668 4.012834 -4.754856 0.000000 -1.000000 0.000000
-3.983411 4.012834 7.773209 -0.976499 0.000000 0.215520
-4.674668 4.189719 4.641193 -0.976499 0.000000 0.215520
-4.674668 4.012834 4.641193 -0.976499 0.000000 0.215520
-4.674668 4.012834 4.641193 -1.000000 0.000000 0.000000
-4.674668 4.189719 1.509177 -1.000000 0.000000 0.000000
-4.674668 4.012834 1.509177 -1.000000 0.000000 0.000000
-4.674668 4.189719 -1.622840 -1.000000 0.000000 0.000000
-4.674668 4.012834 -1.622840 -1.000000 0.000000 0.000000
-4.674668 4.189719 -4.754856 -1.000000 0.000000 0.000000
-4.674668 4.012834 -4.754856 -1.000000 0.000000 0.000000
-2.662395 4.012834 -7.886872 0.995046 0.000000 -0.099415
-2.349474 4.189719 -4.754856 0.995046 0.000000 -0.099415
-2.349474 4.012834 -4.754856 0.995046 0.000000 -0.099415
-2.349474 4.012834 -4.754856 1.000000 -0.000000 0.000000
-2.349474 4.189719 -1.622840 1.000000 -0.000000 0.000000
-2.349474 4.012834 -1.622840 1.000000 -0.000000 0.000000
-2.349474 4.189719 1.509177 1.000000 -0.000000 0.000000
-2.349474 4.012834 1.509177 1.000000 -0.000000 0.000000
-2.349474 4.189719 4.641193 1.000000 -0.000000 0.000000
-2.349474 4.012834 4.641193 1.000000 -0.000000 0.000000
-2.349474 4.189719 4.641193 0.995046 0.000000 0.099415
-2.662395 4.189719 7.773209 -0.000000 0.000000 1.000000
-4.674668 4.189719 -4.754856 -0.976499 -0.000000 -0.215520
-3.983411 4.189719 -7.886872 -0.000000 -0.000000 -1.000000
-2.662395 4.189719 7.773209 0.000000 1.000000 0.000000
-3.983411 4.012834 7.773209 0.000000 -1.000000 0.000000
-3.983411 4.189719 7.773209 -0.976499 0.000000 0.215520
-4.674668 4.189719 4.641193 -1.000000 0.000000 0.000000
-2.662395 4.189719 -7.886872 0.995046 0.000000 -0.099415
-2.349474 4.189719 -4.754856 1.000000 0.000000 0.000000
5.850996 2.886538 1.953082 0.983514 -0.000000 0.180830
5.617492 3.063423 3.223087 0.983514 -0.000000 0.180830
5.617492 2.886538 3.223087 0.983514 -0.000000 0.180830
5.617492 2.886538 3.223087 -0.000000 0.000000 1.000000
4.631740 3.063423 3.223087 -0.000000 0.000000 1.000000
4.631740 2.886538 3.223087 -0.000000 0.000000 1.000000
4.115918 2.886538 -1.856933 -0.926496 0.000000 -0.376303
4.631740 3.063423 -3.126938 -0.926496 0.000000 -0.376303
4.631740 2.886538 -3.126938 -0.926496 0.000000 -0.376303
4.631740 2.886538 -3.126938 -0.000000 0.000000 -1.000000
5.617492 3.063423 -3.126938 -0.000000 0.000000 -1.000000
5.617492 2.886538 -3.126938 -0.000000 0.000000 -1.000000
5.850996 2.886538 -1.856933 0.000000 -1.000000 0.000000
4.631740 2.886538 -3.126938 0.000000 -1.000000 0.000000
5.617492 2.886538 -3.126938 0.000000 -1.000000 0.000000
4.115918 3.063423 -1.856933 0.000000 1.000000 -0.000000
5.617492 3.063423 -3.126938 0.000000 1.000000 -0.000000
4.631740 3.063423 -3.126938 0.000000 1.000000 -0.000000
4.631740 3.063423 3.223087 0.000000 1.000000 -0.000000
5.850996 3.063423 1.953082 0.000000 1.000000 -0.000000
4.115918 3.063423 1.953082 0.000000 1.000000 -0.000000
5.850996 3.063423 0.683077 0.000000 1.000000 -0.000000
4.115918 3.063423 0.683077 0.000000 1.000000 -0.000000
5.850996 3.063423 -0.586928 0.000000 1.000000 -0.000000
4.115918 3.063423 -0.586928 0.000000 1.000000 -0.000000
5.850996 3.063423 -1.856933 0.000000 1.000000 -0.000000
5.617492 2.886538 3.223087 0.000000 -1.000000 0.000000
4.115918 2.886538 1.953082 0.000000 -1.000000 0.000000
5.850996 2.886538 1.953082 0.000000 -1.000000 0.000000
4.115918 2.886538 0.683077 0.000000 -1.000000 0.000000
5.850996 2.886538 0.683077 0.000000 -1.000000 0.000000
4.115918 2.886538 -0.586928 0.000000 -1.000000 0.000000
5.850996 2.886538 -0.586928 0.000000 -1.000000 0.000000
4.115918 2.886538 -1.856933 0.000000 -1.000000 0.000000
4.631740 2.886538 3.223087 -0.926496 0.000000 0.376303
4.115918 3.063423 1.953082 -0.926496 0.000000 0.376303
4.115918 2.886538 1.953082 -0.926496 0.000000 0.376303
4.115918 2.886538 1.953082 -1.000000 0.000000 0.000000
4.115918 3.063423 0.683077 -1.000000 0.000000 0.000000
4.115918 2.886538 0.683077 -1.000000 0.000000 0.000000
4.115918 3.063423 -0.586928 -1.000000 0.000000 0.000000
4.115918 2.886538 -0.586928 -1.000000 0.000000 0.000000
4.115918 3.063423 -1.856933 -1.000000 0.000000 0.000000
4.115918 2.886538 -1.856933 -1.000000 0.000000 0.000000
5.617492 2.886538 -3.126938 0.983514 0.000000 -0.180830
5.850996 3.063423 -1.856933 0.983514 0.000000 -0.180830
5.850996 2.886538 -1.856933 0.983514 0.000000 -0.180830
5.850996 2.886538 -1.856933 1.000000 -0.000000 0.000000
5.850996 3.063423 -0.586928 1.000000 -0.000000 0.000000
5.850996 2.886538 -0.586928 1.000000 -0.000000 0.000000
5.850996 3.063423 0.683077 1.000000 -0.000000 0.000000
5.850996 2.886538 0.683077 1.000000 -0.000000 0.000000
5.850996 3.063423 1.953082 1.000000 -0.000000 0.000000
5.850996 2.886538 1.953082 1.000000 -0.000000 0.000000
5.850996 3.063423 1.953082 0.983514 0.000000 0.180830
5.617492 3.063423 3.223087 -0.000000 0.000000 1.000000
4.115918 3.063423 -1.856933 -0.926496 -0.000000 -0.376303
4.631740 3.063423 -3.126938 -0.000000 -0.000000 -1.000000
5.617492 3.063423 3.223087 0.000000 1.000000 0.000000
4.631740 2.886538 3.223087 0.000000 -1.000000 0.000000
4.631740 3.063423 3.223087 -0.926496 0.000000 0.376303
4.115918 3.063423 1.953082 -1.000000 0.000000 0.000000
5.617492 3.063423 -3.126938 0.983514 0.000000 -0.180830
5.850996 3.063423 -1.856933 1.000000 0.000000 0.000000
3 0 1 2
3 3 4 5
3 6 7 8
3 9 10 11
3 12 13 14
3 15 16 17
3 0 18 1
3 3 19 4
3 6 20 7
3 9 21 10
3 12 22 13
3 15 23 16
3 24 25 26
3 27 28 29
3 30 31 32
3 33 34 35
3 36 37 38
3 39 40 41
3 42 43 44
3 45 46 47
3 48 49 46
3 50 51 52
3 53 54 55
3 56 57 53
3 58 59 60
3 61 62 63
3 64 65 62
3 66 67 68
3 69 70 71
3 72 73 69
3 74 75 76
3 77 78 79
3 80 81 82
3 83 84 85
3 86 87 88
3 89 90 91
3 92 93 94
3 95 96 97
3 98 99 95
3 100 101 102
3 103 104 105
3 106 107 104
3 108 109 110
3 111 112 113
3 114 115 111
3 116 117 118
3 119 120 121
3 122 123 120
3 24 124 25
3 125 126 127
3 30 128 31
3 33 129 34
3 36 130 37
3 39 131 40
3 42 132 43
3 45 48 46
3 48 133 49
3 134 135 136
3 53 57 54
3 56 137 57
3 58 138 59
3 61 64 62
3 64 139 65
3 66 140 67
3 69 73 70
3 72 141 73
3 74 142 75
3 143 144 145
3 80 146 81
3 83 147 84
3 86 148 87
3 89 149 90
3 150 151 152
3 95 99 96
3 98 153 99
3 154 155 156
3 103 106 104
3 106 157 107
3 158 159 160
3 111 115 112
3 114 161 115
3 116 162 117
3 119 122 120
3 122 163 123
3 164 165 166
3 167 168 169
3 170 171 172
3 173 174 175
3 176 177 178
3 179 180 181
3 182 183 184
3 184 185 186
3 186 187 188
3 188 189 179
3 190 191 192
3 192 193 194
3 194 195 196
3 196 197 176
3 198 199 200
3 201 202 203
3 203 204 205
3 205 206 207
3 208 209 210
3 211 212 213
3 213 214 215
3 215 216 217
3 164 218 165
3 167 219 168
3 170 220 171
3 173 221 174
3 176 197 177
3 179 189 180
3 182 222 183
3 184 183 185
3 186 185 187
3 188 187 189
3 190 223 191
3 192 191 193
3 194 193 195
3 196 195 197
3 198 224 199
3 201 225 202
3 203 202 204
3 205 204 206
3 208 226 209
3 211 227 212
3 213 212 214
3 215 214 216
3 228 229 230
3 231 232 233
3 234 235 236
3 237 238 239
3 240 241 242
3 243 244 245
3 246 247 248
3 248 249 250
3 250 251 252
3 252 253 243
3 254 255 256
3 256 257 258
3 258 259 260
3 260 261 240
3 262 263 264
3 265 266 267
3 267 268 269
3 269 270 271
3 272 273 274
3 275 276 277
3 277 278 279
3 279 280 281
3 228 282 229
3 231 283 232
3 234 284 235
3 237 285 238
3 240 261 241
3 243 253 244
3 246 286 247
3 248 247 249
3 250 249 251
3 252 251 253
3 254 287 255
3 256 255 257
3 258 257 259
3 260 259 261
3 262 288 263
3 265 289 266
3 267 266 268
3 269 268 270
3 272 290 273
3 275 291 276
3 277 276 278
3 279 278 280
