ply
format ascii 1.0
comment Created by Blender 2.81 (sub 16) - www.blender.org, source file: 'seaplane.blend'
element vertex 192
property float x
property float y
property float z
property float nx
property float ny
property float nz
element face 80
property list uchar uint vertex_indices
end_header
5.905357 3.506823 -0.289387 1.000000 -0.000000 0.000000
5.905357 3.253244 0.474419 1.000000 -0.000000 0.000000
5.905357 3.253244 -0.428892 1.000000 -0.000000 0.000000
-4.723375 2.952577 1.022256 -0.110146 0.251964 0.961448
-7.081963 3.357023 0.646059 -0.110146 0.251964 0.961448
-7.081963 2.951182 0.752416 -0.110146 0.251964 0.961448
-7.081963 3.357023 0.646059 -1.000000 0.000000 0.000000
-7.081963 2.951182 -0.706890 -1.000000 0.000000 0.000000
-7.081963 2.951182 0.752416 -1.000000 0.000000 0.000000
3.934838 3.508505 -0.554508 0.117474 0.478679 -0.870095
5.905357 3.253244 -0.428892 0.117474 0.478679 -0.870095
3.934838 3.039552 -0.812501 0.117474 0.478679 -0.870095
-6.306932 2.202305 0.421008 -0.362491 -0.931987 -0.000000
-4.723375 1.586390 -0.522760 -0.362491 -0.931987 -0.000000
-4.723375 1.586390 0.568287 -0.362491 -0.931987 -0.000000
3.934838 2.258056 0.511168 0.240256 -0.970710 0.000000
5.905357 2.745770 -0.354198 0.240256 -0.970710 0.000000
5.905357 2.745770 0.399724 0.240256 -0.970710 0.000000
1.770285 1.821407 0.608082 0.197744 -0.980254 0.000000
3.934838 2.258056 -0.465642 0.197744 -0.980254 0.000000
3.934838 2.258056 0.511168 0.197744 -0.980254 0.000000
-0.394269 1.821407 0.719892 -0.000000 -1.000000 0.000000
1.770284 1.821407 -0.562556 -0.000000 -1.000000 0.000000
1.770285 1.821407 0.608082 -0.000000 -1.000000 0.000000
-2.376494 1.586390 0.568287 0.117738 -0.993045 -0.000000
-0.394269 1.821407 -0.674366 0.117738 -0.993045 -0.000000
-0.394269 1.821407 0.719892 0.117738 -0.993045 -0.000000
-4.723375 1.586390 0.568287 -0.000000 -1.000000 0.000000
-2.376495 1.586390 -0.522760 -0.000000 -1.000000 0.000000
-2.376494 1.586390 0.568287 -0.000000 -1.000000 0.000000
-7.081963 3.357023 -0.600533 -0.110146 0.251964 -0.961448
-4.723375 2.952577 -0.976730 -0.110146 0.251964 -0.961448
-7.081963 2.951182 -0.706890 -0.110146 0.251964 -0.961448
-4.723375 4.083374 -0.831039 0.000000 0.127783 -0.991802
-2.376494 2.952577 -0.976730 0.000000 0.127783 -0.991802
-4.723375 2.952577 -0.976730 0.000000 0.127783 -0.991802
-2.376494 2.952577 -0.976730 -0.027193 0.619749 -0.784329
-0.394268 3.508505 -0.606180 -0.027193 0.619749 -0.784329
-0.394269 3.039552 -0.976730 -0.027193 0.619749 -0.784329
-0.394268 3.508505 -0.606180 0.059425 0.618883 -0.783232
1.770285 3.039552 -0.812501 0.059425 0.618883 -0.783232
-0.394269 3.039552 -0.976730 0.059425 0.618883 -0.783232
1.770285 3.508505 -0.554508 0.000000 0.482017 -0.876162
3.934838 3.039552 -0.812501 0.000000 0.482017 -0.876162
1.770285 3.039552 -0.812501 0.000000 0.482017 -0.876162
5.905357 3.253244 0.474419 0.117474 0.478680 0.870095
3.934837 3.508505 0.600034 0.117474 0.478680 0.870095
3.934838 3.039552 0.858027 0.117474 0.478680 0.870095
3.934837 3.508505 0.600034 0.000000 0.482017 0.876162
1.770285 3.039552 0.858027 0.000000 0.482017 0.876162
3.934838 3.039552 0.858027 0.000000 0.482017 0.876162
1.770285 3.039552 0.858027 0.059425 0.618883 0.783232
-0.394269 3.508505 0.651706 0.059425 0.618883 0.783232
-0.394269 3.039552 1.022256 0.059425 0.618883 0.783232
-0.394269 3.508505 0.651706 -0.027193 0.619749 0.784329
-2.376495 2.952577 1.022256 -0.027193 0.619749 0.784329
-0.394269 3.039552 1.022256 -0.027193 0.619749 0.784329
-2.376495 4.083374 0.876566 0.000000 0.127782 0.991802
-4.723375 2.952577 1.022256 0.000000 0.127782 0.991802
-2.376495 2.952577 1.022256 0.000000 0.127782 0.991802
-2.376495 2.952577 1.022256 0.000000 -0.315336 0.948980
-4.723375 1.586390 0.568287 0.000000 -0.315336 0.948980
-2.376494 1.586390 0.568287 0.000000 -0.315336 0.948980
-0.394269 1.821407 0.719892 -0.035172 -0.315141 0.948393
-2.376495 2.952577 1.022256 -0.035172 -0.315141 0.948393
-2.376494 1.586390 0.568287 -0.035172 -0.315141 0.948393
1.770285 3.039552 0.858027 0.050536 -0.200740 0.978340
-0.394269 1.821407 0.719892 0.050536 -0.200740 0.978340
1.770285 1.821407 0.608082 0.050536 -0.200740 0.978340
3.934838 2.258056 0.511168 0.084107 -0.200285 0.976121
1.770285 3.039552 0.858027 0.084107 -0.200285 0.976121
1.770285 1.821407 0.608082 0.084107 -0.200285 0.976121
5.905357 2.745770 0.399724 0.150370 -0.401064 0.903624
3.934838 3.039552 0.858027 0.150370 -0.401064 0.903624
3.934838 2.258056 0.511168 0.150370 -0.401064 0.903624
1.770285 3.039552 -0.812501 0.084107 -0.200285 -0.976121
3.934838 2.258056 -0.465642 0.084107 -0.200285 -0.976121
1.770284 1.821407 -0.562556 0.084107 -0.200285 -0.976121
-0.394269 1.821407 -0.674366 0.050536 -0.200740 -0.978340
1.770285 3.039552 -0.812501 0.050536 -0.200740 -0.978340
1.770284 1.821407 -0.562556 0.050536 -0.200740 -0.978340
-2.376494 2.952577 -0.976730 -0.035172 -0.315141 -0.948393
-0.394269 1.821407 -0.674366 -0.035172 -0.315141 -0.948393
-2.376495 1.586390 -0.522760 -0.035172 -0.315141 -0.948393
-4.723375 2.952577 -0.976730 0.000000 -0.315336 -0.948980
-2.376495 1.586390 -0.522760 0.000000 -0.315336 -0.948980
-4.723375 1.586390 -0.522760 0.000000 -0.315336 -0.948980
-6.306932 2.202305 -0.375482 -0.206368 -0.308548 -0.928553
-4.723375 2.952577 -0.976730 -0.206368 -0.308548 -0.928553
-4.723375 1.586390 -0.522760 -0.206368 -0.308548 -0.928553
3.934838 3.039552 -0.812501 0.150370 -0.401064 -0.903624
5.905357 2.745770 -0.354198 0.150370 -0.401064 -0.903624
3.934838 2.258056 -0.465642 0.150370 -0.401064 -0.903624
-7.081963 2.951182 0.752416 -0.694869 -0.719137 -0.000000
-6.306932 2.202305 -0.375482 -0.694869 -0.719137 -0.000000
-6.306932 2.202305 0.421008 -0.694869 -0.719137 -0.000000
-4.723375 2.952577 1.022256 -0.206368 -0.308548 0.928553
-6.306932 2.202305 0.421008 -0.206368 -0.308548 0.928553
-4.723375 1.586390 0.568287 -0.206368 -0.308548 0.928553
5.905357 2.745770 0.399724 1.000000 -0.000000 0.000000
5.905357 2.745770 -0.354198 1.000000 -0.000000 0.000000
5.905357 3.506823 0.334913 0.000853 1.000000 0.000000
3.934838 3.508505 -0.554508 0.000853 1.000000 0.000000
3.934837 3.508505 0.600034 0.000853 1.000000 0.000000
-4.723375 4.083374 0.876566 -0.294320 0.955707 0.000000
-7.081963 3.357023 -0.600533 -0.294320 0.955707 0.000000
-7.081963 3.357023 0.646059 -0.294320 0.955707 0.000000
-2.376495 4.083374 0.876566 -0.000000 1.000000 0.000000
-4.723375 4.083374 -0.831039 -0.000000 1.000000 0.000000
-4.723375 4.083374 0.876566 -0.000000 1.000000 0.000000
-0.394269 3.508505 0.651706 0.278535 0.960426 0.000000
-2.376494 4.083374 -0.831039 0.278535 0.960426 0.000000
-2.376495 4.083374 0.876566 0.278535 0.960426 0.000000
1.770284 3.508505 0.600034 -0.000000 1.000000 0.000000
-0.394268 3.508505 -0.606180 -0.000000 1.000000 0.000000
-0.394269 3.508505 0.651706 -0.000000 1.000000 0.000000
3.934837 3.508505 0.600034 -0.000000 1.000000 0.000000
1.770285 3.508505 -0.554508 -0.000000 1.000000 0.000000
5.905357 3.506823 0.334913 1.000000 0.000000 0.000000
-4.723375 2.952577 1.022256 -0.135033 0.126612 0.982718
-4.723375 4.083374 0.876566 -0.135033 0.126612 0.982718
-7.081963 3.357023 0.646059 -0.135033 0.126612 0.982718
-7.081963 3.357023 -0.600533 -1.000000 0.000000 0.000000
5.905357 3.506823 -0.289387 0.117474 0.478679 -0.870095
-6.306932 2.202305 -0.375482 -0.362491 -0.931987 0.000000
3.934838 2.258056 -0.465642 0.240256 -0.970710 0.000000
1.770284 1.821407 -0.562556 0.197744 -0.980254 -0.000000
-0.394269 1.821407 -0.674366 -0.000000 -1.000000 0.000000
-2.376494 1.586390 0.568287 0.117737 -0.993045 -0.000000
-2.376495 1.586390 -0.522760 0.117737 -0.993045 -0.000000
-0.394269 1.821407 -0.674366 0.117737 -0.993045 -0.000000
-4.723375 1.586390 -0.522760 0.000000 -1.000000 0.000000
-7.081963 3.357023 -0.600533 -0.135033 0.126612 -0.982718
-4.723375 4.083374 -0.831039 -0.135033 0.126612 -0.982718
-4.723375 2.952577 -0.976730 -0.135033 0.126612 -0.982718
-2.376494 4.083374 -0.831039 0.000000 0.127783 -0.991802
-2.376494 2.952577 -0.976730 0.147921 0.126377 -0.980892
-2.376494 4.083374 -0.831039 0.147921 0.126377 -0.980892
-0.394268 3.508505 -0.606180 0.147921 0.126377 -0.980892
-0.394268 3.508505 -0.606180 0.020911 0.481912 -0.875970
1.770285 3.508505 -0.554508 0.020911 0.481912 -0.875970
1.770285 3.039552 -0.812501 0.020911 0.481912 -0.875970
3.934838 3.508505 -0.554508 0.000000 0.482017 -0.876162
5.905357 3.253244 0.474419 0.117474 0.478679 0.870095
5.905357 3.506823 0.334913 0.117474 0.478679 0.870095
3.934837 3.508505 0.600034 0.117474 0.478679 0.870095
1.770284 3.508505 0.600034 -0.000000 0.482017 0.876162
1.770285 3.039552 0.858027 0.020911 0.481912 0.875970
1.770284 3.508505 0.600034 0.020911 0.481912 0.875970
-0.394269 3.508505 0.651706 0.020911 0.481912 0.875970
-0.394269 3.508505 0.651706 0.147921 0.126377 0.980892
-2.376495 4.083374 0.876566 0.147921 0.126377 0.980892
-2.376495 2.952577 1.022256 0.147921 0.126377 0.980892
-4.723375 4.083374 0.876566 -0.000000 0.127782 0.991802
-4.723375 2.952577 1.022256 0.000000 -0.315336 0.948980
-0.394269 1.821407 0.719892 0.010570 -0.240893 0.970494
-0.394269 3.039552 1.022256 0.010570 -0.240893 0.970494
-2.376495 2.952577 1.022256 0.010570 -0.240893 0.970494
1.770285 3.039552 0.858027 0.073439 -0.240256 0.967928
-0.394269 3.039552 1.022256 0.073439 -0.240256 0.967928
-0.394269 1.821407 0.719892 0.073439 -0.240256 0.967928
3.934838 2.258056 0.511168 0.000000 -0.405676 0.914017
3.934838 3.039552 0.858027 0.000000 -0.405676 0.914017
1.770285 3.039552 0.858027 0.000000 -0.405676 0.914017
5.905357 2.745770 0.399724 0.204008 -0.142557 0.968534
5.905357 3.253244 0.474419 0.204008 -0.142557 0.968534
3.934838 3.039552 0.858027 0.204008 -0.142557 0.968534
1.770285 3.039552 -0.812501 -0.000000 -0.405676 -0.914017
3.934838 3.039552 -0.812501 -0.000000 -0.405676 -0.914017
3.934838 2.258056 -0.465642 -0.000000 -0.405676 -0.914017
-0.394269 1.821407 -0.674366 0.073439 -0.240256 -0.967928
-0.394269 3.039552 -0.976730 0.073439 -0.240256 -0.967928
1.770285 3.039552 -0.812501 0.073439 -0.240256 -0.967928
-2.376494 2.952577 -0.976730 0.010570 -0.240893 -0.970494
-0.394269 3.039552 -0.976730 0.010570 -0.240893 -0.970494
-0.394269 1.821407 -0.674366 0.010570 -0.240893 -0.970494
-2.376494 2.952577 -0.976730 -0.000000 -0.315336 -0.948980
-6.306932 2.202305 -0.375482 -0.099017 -0.486599 -0.867996
-7.081963 2.951182 -0.706890 -0.099017 -0.486599 -0.867996
-4.723375 2.952577 -0.976730 -0.099017 -0.486599 -0.867996
3.934838 3.039552 -0.812501 0.204008 -0.142557 -0.968534
5.905357 3.253244 -0.428892 0.204008 -0.142557 -0.968534
5.905357 2.745770 -0.354198 0.204008 -0.142557 -0.968534
-7.081963 2.951182 -0.706890 -0.694869 -0.719137 0.000000
-4.723375 2.952577 1.022256 -0.099017 -0.486599 0.867996
-7.081963 2.951182 0.752416 -0.099017 -0.486599 0.867996
-6.306932 2.202305 0.421008 -0.099017 -0.486599 0.867996
5.905357 3.506823 -0.289387 0.000853 1.000000 -0.000000
-4.723375 4.083374 -0.831039 -0.294320 0.955707 0.000000
-2.376494 4.083374 -0.831039 0.000000 1.000000 -0.000000
-0.394268 3.508505 -0.606180 0.278535 0.960426 0.000000
3.934838 3.508505 -0.554508 0.000000 1.000000 -0.000000
3 0 1 2
3 3 4 5
3 6 7 8
3 9 10 11
3 12 13 14
3 15 16 17
3 18 19 20
3 21 22 23
3 24 25 26
3 27 28 29
3 30 31 32
3 33 34 35
3 36 37 38
3 39 40 41
3 42 43 44
3 45 46 47
3 48 49 50
3 51 52 53
3 54 55 56
3 57 58 59
3 60 61 62
3 63 64 65
3 66 67 68
3 69 70 71
3 72 73 74
3 75 76 77
3 78 79 80
3 81 82 83
3 84 85 86
3 87 88 89
3 90 91 92
3 93 94 95
3 96 97 98
3 2 99 100
3 101 102 103
3 104 105 106
3 107 108 109
3 110 111 112
3 113 114 115
3 116 117 113
3 0 118 1
3 119 120 121
3 6 122 7
3 9 123 10
3 12 124 13
3 15 125 16
3 18 126 19
3 21 127 22
3 128 129 130
3 27 131 28
3 132 133 134
3 33 135 34
3 136 137 138
3 139 140 141
3 42 142 43
3 143 144 145
3 48 146 49
3 147 148 149
3 150 151 152
3 57 153 58
3 60 154 61
3 155 156 157
3 158 159 160
3 161 162 163
3 164 165 166
3 167 168 169
3 170 171 172
3 173 174 175
3 84 176 85
3 177 178 179
3 180 181 182
3 93 183 94
3 184 185 186
3 2 1 99
3 101 187 102
3 104 188 105
3 107 189 108
3 110 190 111
3 113 117 114
3 116 191 117
